<svg xmlns="http://www.w3.org/2000/svg" viewBox="0 0 512 512" role="img" aria-label="Proper QR Studio icon">
  <defs>
    <linearGradient id="bg" x1="0" y1="0" x2="1" y2="1">
      <stop offset="0%" stop-color="#0f172a" />
      <stop offset="100%" stop-color="#155e75" />
    </linearGradient>
    <linearGradient id="accent" x1="0" y1="0" x2="1" y2="1">
      <stop offset="0%" stop-color="#f97316" />
      <stop offset="100%" stop-color="#ea580c" />
    </linearGradient>
  </defs>
  <rect width="512" height="512" rx="112" fill="url(#bg)" />
  <rect x="82" y="82" width="348" height="348" rx="56" fill="#f8fafc" />
  <rect x="120" y="120" width="118" height="118" rx="18" fill="#0f172a" />
  <rect x="274" y="120" width="46" height="46" rx="10" fill="#0f172a" />
  <rect x="336" y="120" width="46" height="46" rx="10" fill="#0f172a" />
  <rect x="274" y="182" width="46" height="46" rx="10" fill="#0f172a" />
  <rect x="336" y="182" width="46" height="46" rx="10" fill="#f97316" />
  <rect x="120" y="274" width="46" height="46" rx="10" fill="#0f172a" />
  <rect x="182" y="274" width="46" height="46" rx="10" fill="#0f172a" />
  <rect x="244" y="274" width="46" height="46" rx="10" fill="#0f172a" />
  <rect x="336" y="274" width="46" height="46" rx="10" fill="url(#accent)" />
  <rect x="120" y="336" width="46" height="46" rx="10" fill="#0f172a" />
  <rect x="182" y="336" width="46" height="46" rx="10" fill="#f97316" />
  <rect x="244" y="336" width="46" height="46" rx="10" fill="#0f172a" />
  <rect x="306" y="336" width="76" height="76" rx="18" fill="#0f172a" />
  <rect x="322" y="352" width="44" height="44" rx="12" fill="#f8fafc" />
</svg>
